<svg class="marks" width="186" height="402" viewBox="0 0 186 402" version="1.1" xmlns="http://www.w3.org/2000/svg" xmlns:xlink="http://www.w3.org/1999/xlink"><g transform="translate(52,11)"><g class="mark-group role-frame root"><g transform="translate(0,0)"><path class="background" d="M0,0h63v200h-63Z" style="fill: none;"></path><g><g class="mark-group role-axis"><g transform="translate(0.5,0.5)"><path class="background" d="M0,0h0v0h0Z" style="pointer-events: none; fill: none;"></path><g><g class="mark-rule role-axis-grid" style="pointer-events: none;"><line transform="translate(0,200)" x2="63" y2="0" style="fill: none; stroke: #ddd; stroke-width: 1; stroke-dasharray: ; opacity: 1;"></line><line transform="translate(0,190)" x2="63" y2="0" style="fill: none; stroke: #ddd; stroke-width: 1; stroke-dasharray: ; opacity: 1;"></line><line transform="translate(0,184)" x2="63" y2="0" style="fill: none; stroke: #ddd; stroke-width: 1; stroke-dasharray: ; opacity: 1;"></line><line transform="translate(0,180)" x2="63" y2="0" style="fill: none; stroke: #ddd; stroke-width: 1; stroke-dasharray: ; opacity: 1;"></line><line transform="translate(0,177)" x2="63" y2="0" style="fill: none; stroke: #ddd; stroke-width: 1; stroke-dasharray: ; opacity: 1;"></line><line transform="translate(0,174)" x2="63" y2="0" style="fill: none; stroke: #ddd; stroke-width: 1; stroke-dasharray: ; opacity: 1;"></line><line transform="translate(0,172)" x2="63" y2="0" style="fill: none; stroke: #ddd; stroke-width: 1; stroke-dasharray: ; opacity: 1;"></line><line transform="translate(0,170)" x2="63" y2="0" style="fill: none; stroke: #ddd; stroke-width: 1; stroke-dasharray: ; opacity: 1;"></line><line transform="translate(0,168)" x2="63" y2="0" style="fill: none; stroke: #ddd; stroke-width: 1; stroke-dasharray: ; opacity: 1;"></line><line transform="translate(0,167)" x2="63" y2="0" style="fill: none; stroke: #ddd; stroke-width: 1; stroke-dasharray: ; opacity: 1;"></line><line transform="translate(0,157)" x2="63" y2="0" style="fill: none; stroke: #ddd; stroke-width: 1; stroke-dasharray: ; opacity: 1;"></line><line transform="translate(0,151)" x2="63" y2="0" style="fill: none; stroke: #ddd; stroke-width: 1; stroke-dasharray: ; opacity: 1;"></line><line transform="translate(0,147)" x2="63" y2="0" style="fill: none; stroke: #ddd; stroke-width: 1; stroke-dasharray: ; opacity: 1;"></line><line transform="translate(0,143)" x2="63" y2="0" style="fill: none; stroke: #ddd; stroke-width: 1; stroke-dasharray: ; opacity: 1;"></line><line transform="translate(0,141)" x2="63" y2="0" style="fill: none; stroke: #ddd; stroke-width: 1; stroke-dasharray: ; opacity: 1;"></line><line transform="translate(0,138)" x2="63" y2="0" style="fill: none; stroke: #ddd; stroke-width: 1; stroke-dasharray: ; opacity: 1;"></line><line transform="translate(0,137)" x2="63" y2="0" style="fill: none; stroke: #ddd; stroke-width: 1; stroke-dasharray: ; opacity: 1;"></line><line transform="translate(0,135)" x2="63" y2="0" style="fill: none; stroke: #ddd; stroke-width: 1; stroke-dasharray: ; opacity: 1;"></line><line transform="translate(0,133)" x2="63" y2="0" style="fill: none; stroke: #ddd; stroke-width: 1; stroke-dasharray: ; opacity: 1;"></line><line transform="translate(0,123)" x2="63" y2="0" style="fill: none; stroke: #ddd; stroke-width: 1; stroke-dasharray: ; opacity: 1;"></line><line transform="translate(0,117)" x2="63" y2="0" style="fill: none; stroke: #ddd; stroke-width: 1; stroke-dasharray: ; opacity: 1;"></line><line transform="translate(0,113)" x2="63" y2="0" style="fill: none; stroke: #ddd; stroke-width: 1; stroke-dasharray: ; opacity: 1;"></line><line transform="translate(0,110)" x2="63" y2="0" style="fill: none; stroke: #ddd; stroke-width: 1; stroke-dasharray: ; opacity: 1;"></line><line transform="translate(0,107)" x2="63" y2="0" style="fill: none; stroke: #ddd; stroke-width: 1; stroke-dasharray: ; opacity: 1;"></line><line transform="translate(0,105)" x2="63" y2="0" style="fill: none; stroke: #ddd; stroke-width: 1; stroke-dasharray: ; opacity: 1;"></line><line transform="translate(0,103)" x2="63" y2="0" style="fill: none; stroke: #ddd; stroke-width: 1; stroke-dasharray: ; opacity: 1;"></line><line transform="translate(0,102)" x2="63" y2="0" style="fill: none; stroke: #ddd; stroke-width: 1; stroke-dasharray: ; opacity: 1;"></line><line transform="translate(0,100)" x2="63" y2="0" style="fill: none; stroke: #ddd; stroke-width: 1; stroke-dasharray: ; opacity: 1;"></line><line transform="translate(0,90)" x2="63" y2="0" style="fill: none; stroke: #ddd; stroke-width: 1; stroke-dasharray: ; opacity: 1;"></line><line transform="translate(0,84)" x2="63" y2="0" style="fill: none; stroke: #ddd; stroke-width: 1; stroke-dasharray: ; opacity: 1;"></line><line transform="translate(0,80)" x2="63" y2="0" style="fill: none; stroke: #ddd; stroke-width: 1; stroke-dasharray: ; opacity: 1;"></line><line transform="translate(0,77)" x2="63" y2="0" style="fill: none; stroke: #ddd; stroke-width: 1; stroke-dasharray: ; opacity: 1;"></line><line transform="translate(0,74)" x2="63" y2="0" style="fill: none; stroke: #ddd; stroke-width: 1; stroke-dasharray: ; opacity: 1;"></line><line transform="translate(0,72)" x2="63" y2="0" style="fill: none; stroke: #ddd; stroke-width: 1; stroke-dasharray: ; opacity: 1;"></line><line transform="translate(0,70)" x2="63" y2="0" style="fill: none; stroke: #ddd; stroke-width: 1; stroke-dasharray: ; opacity: 1;"></line><line transform="translate(0,68)" x2="63" y2="0" style="fill: none; stroke: #ddd; stroke-width: 1; stroke-dasharray: ; opacity: 1;"></line><line transform="translate(0,67)" x2="63" y2="0" style="fill: none; stroke: #ddd; stroke-width: 1; stroke-dasharray: ; opacity: 1;"></line><line transform="translate(0,57)" x2="63" y2="0" style="fill: none; stroke: #ddd; stroke-width: 1; stroke-dasharray: ; opacity: 1;"></line><line transform="translate(0,51)" x2="63" y2="0" style="fill: none; stroke: #ddd; stroke-width: 1; stroke-dasharray: ; opacity: 1;"></line><line transform="translate(0,47)" x2="63" y2="0" style="fill: none; stroke: #ddd; stroke-width: 1; stroke-dasharray: ; opacity: 1;"></line><line transform="translate(0,43)" x2="63" y2="0" style="fill: none; stroke: #ddd; stroke-width: 1; stroke-dasharray: ; opacity: 1;"></line><line transform="translate(0,41)" x2="63" y2="0" style="fill: none; stroke: #ddd; stroke-width: 1; stroke-dasharray: ; opacity: 1;"></line><line transform="translate(0,38)" x2="63" y2="0" style="fill: none; stroke: #ddd; stroke-width: 1; stroke-dasharray: ; opacity: 1;"></line><line transform="translate(0,37)" x2="63" y2="0" style="fill: none; stroke: #ddd; stroke-width: 1; stroke-dasharray: ; opacity: 1;"></line><line transform="translate(0,35)" x2="63" y2="0" style="fill: none; stroke: #ddd; stroke-width: 1; stroke-dasharray: ; opacity: 1;"></line><line transform="translate(0,33)" x2="63" y2="0" style="fill: none; stroke: #ddd; stroke-width: 1; stroke-dasharray: ; opacity: 1;"></line><line transform="translate(0,23)" x2="63" y2="0" style="fill: none; stroke: #ddd; stroke-width: 1; stroke-dasharray: ; opacity: 1;"></line><line transform="translate(0,17)" x2="63" y2="0" style="fill: none; stroke: #ddd; stroke-width: 1; stroke-dasharray: ; opacity: 1;"></line><line transform="translate(0,13)" x2="63" y2="0" style="fill: none; stroke: #ddd; stroke-width: 1; stroke-dasharray: ; opacity: 1;"></line><line transform="translate(0,10)" x2="63" y2="0" style="fill: none; stroke: #ddd; stroke-width: 1; stroke-dasharray: ; opacity: 1;"></line><line transform="translate(0,7)" x2="63" y2="0" style="fill: none; stroke: #ddd; stroke-width: 1; stroke-dasharray: ; opacity: 1;"></line><line transform="translate(0,5)" x2="63" y2="0" style="fill: none; stroke: #ddd; stroke-width: 1; stroke-dasharray: ; opacity: 1;"></line><line transform="translate(0,3)" x2="63" y2="0" style="fill: none; stroke: #ddd; stroke-width: 1; stroke-dasharray: ; opacity: 1;"></line><line transform="translate(0,2)" x2="63" y2="0" style="fill: none; stroke: #ddd; stroke-width: 1; stroke-dasharray: ; opacity: 1;"></line><line transform="translate(0,0)" x2="63" y2="0" style="fill: none; stroke: #ddd; stroke-width: 1; stroke-dasharray: ; opacity: 1;"></line></g></g></g></g><g class="mark-group role-scope nested_main_group"><g transform="translate(0,0)"><path class="background" d="M0,0h63v200h-63Z" style="fill: transparent;"></path><g><g class="mark-symbol role-point marks"><path transform="translate(11,180)" d="M2.7386127875258306,0A2.7386127875258306,2.7386127875258306,0,1,1,-2.7386127875258306,0A2.7386127875258306,2.7386127875258306,0,1,1,2.7386127875258306,0" style="fill: transparent; stroke: rgb(207, 225, 242); stroke-width: 2; opacity: 0.7;"></path><path transform="translate(32,172)" d="M2.7386127875258306,0A2.7386127875258306,2.7386127875258306,0,1,1,-2.7386127875258306,0A2.7386127875258306,2.7386127875258306,0,1,1,2.7386127875258306,0" style="fill: transparent; stroke: rgb(207, 225, 242); stroke-width: 2; opacity: 0.7;"></path><path transform="translate(53,127)" d="M2.7386127875258306,0A2.7386127875258306,2.7386127875258306,0,1,1,-2.7386127875258306,0A2.7386127875258306,2.7386127875258306,0,1,1,2.7386127875258306,0" style="fill: transparent; stroke: rgb(207, 225, 242); stroke-width: 2; opacity: 0.7;"></path><path transform="translate(11,93)" d="M2.7386127875258306,0A2.7386127875258306,2.7386127875258306,0,1,1,-2.7386127875258306,0A2.7386127875258306,2.7386127875258306,0,1,1,2.7386127875258306,0" style="fill: transparent; stroke: rgb(75, 151, 201); stroke-width: 2; opacity: 0.7;"></path><path transform="translate(32,106)" d="M2.7386127875258306,0A2.7386127875258306,2.7386127875258306,0,1,1,-2.7386127875258306,0A2.7386127875258306,2.7386127875258306,0,1,1,2.7386127875258306,0" style="fill: transparent; stroke: rgb(75, 151, 201); stroke-width: 2; opacity: 0.7;"></path><path transform="translate(53,50)" d="M2.7386127875258306,0A2.7386127875258306,2.7386127875258306,0,1,1,-2.7386127875258306,0A2.7386127875258306,2.7386127875258306,0,1,1,2.7386127875258306,0" style="fill: transparent; stroke: rgb(75, 151, 201); stroke-width: 2; opacity: 0.7;"></path><path transform="translate(11,73)" d="M2.7386127875258306,0A2.7386127875258306,2.7386127875258306,0,1,1,-2.7386127875258306,0A2.7386127875258306,2.7386127875258306,0,1,1,2.7386127875258306,0" style="fill: transparent; stroke: rgb(8, 48, 107); stroke-width: 2; opacity: 0.7;"></path><path transform="translate(32,87)" d="M2.7386127875258306,0A2.7386127875258306,2.7386127875258306,0,1,1,-2.7386127875258306,0A2.7386127875258306,2.7386127875258306,0,1,1,2.7386127875258306,0" style="fill: transparent; stroke: rgb(8, 48, 107); stroke-width: 2; opacity: 0.7;"></path><path transform="translate(53,25)" d="M2.7386127875258306,0A2.7386127875258306,2.7386127875258306,0,1,1,-2.7386127875258306,0A2.7386127875258306,2.7386127875258306,0,1,1,2.7386127875258306,0" style="fill: transparent; stroke: rgb(8, 48, 107); stroke-width: 2; opacity: 0.7;"></path></g></g></g></g><g class="mark-group role-legend"><g transform="translate(81,0)"><path class="background" d="M0,0h48v57h-48Z" style="pointer-events: none; fill: none;"></path><g><g class="mark-group role-legend-entry"><g transform="translate(0,16)"><path class="background" d="M0,0h0v0h0Z" style="pointer-events: none; fill: none;"></path><g><g class="mark-symbol role-legend-symbol" style="pointer-events: none;"><path transform="translate(5,5)" d="M5,0A5,5,0,1,1,-5,0A5,5,0,1,1,5,0" style="fill: none; stroke: rgb(207, 225, 242); stroke-width: 1.5; opacity: 1;"></path><path transform="translate(5,20)" d="M5,0A5,5,0,1,1,-5,0A5,5,0,1,1,5,0" style="fill: none; stroke: rgb(75, 151, 201); stroke-width: 1.5; opacity: 1;"></path><path transform="translate(5,35)" d="M5,0A5,5,0,1,1,-5,0A5,5,0,1,1,5,0" style="fill: none; stroke: rgb(8, 48, 107); stroke-width: 1.5; opacity: 1;"></path></g><g class="mark-text role-legend-label" style="pointer-events: none;"><text text-anchor="start" transform="translate(18,8)" style="font: 10px sans-serif; fill: #000; opacity: 1;">ACP 1</text><text text-anchor="start" transform="translate(18,23)" style="font: 10px sans-serif; fill: #000; opacity: 1;">ACP 2</text><text text-anchor="start" transform="translate(18,38)" style="font: 10px sans-serif; fill: #000; opacity: 1;">ACP 3</text></g></g></g></g><g class="mark-text role-legend-title" style="pointer-events: none;"><text text-anchor="start" transform="translate(0,10)" style="font: bold 11px sans-serif; fill: #000; opacity: 1;">Problem</text></g></g></g></g><g class="mark-group role-axis"><g transform="translate(0.5,200.5)"><path class="background" d="M0,0h0v0h0Z" style="pointer-events: none; fill: none;"></path><g><g class="mark-rule role-axis-tick" style="pointer-events: none;"><line transform="translate(11,0)" x2="0" y2="5" style="fill: none; stroke: #000; stroke-width: 1; opacity: 1;"></line><line transform="translate(32,0)" x2="0" y2="5" style="fill: none; stroke: #000; stroke-width: 1; opacity: 1;"></line><line transform="translate(53,0)" x2="0" y2="5" style="fill: none; stroke: #000; stroke-width: 1; opacity: 1;"></line></g><g class="mark-text role-axis-label" style="pointer-events: none;"><text text-anchor="end" transform="translate(11,7) rotate(270) translate(0,3)" style="font: 10px sans-serif; fill: #000; opacity: 1;">astar_search h_1</text><text text-anchor="end" transform="translate(32,7) rotate(270) translate(0,3)" style="font: 10px sans-serif; fill: #000; opacity: 1;">astar_search h_ignore_preconditions</text><text text-anchor="end" transform="translate(53,7) rotate(270) translate(0,3)" style="font: 10px sans-serif; fill: #000; opacity: 1;">astar_search h_pg_levelsum</text></g><g class="mark-rule role-axis-domain" style="pointer-events: none;"><line transform="translate(0,0)" x2="63" y2="0" style="fill: none; stroke: #000; stroke-width: 1; opacity: 1;"></line></g><g class="mark-text role-axis-title" style="pointer-events: none;"><text text-anchor="middle" transform="translate(31.5,184.55078125)" style="font: bold 11px sans-serif; fill: #000; opacity: 1;">Search</text></g></g></g></g><g class="mark-group role-axis"><g transform="translate(0.5,0.5)"><path class="background" d="M0,0h0v0h0Z" style="pointer-events: none; fill: none;"></path><g><g class="mark-rule role-axis-tick" style="pointer-events: none;"><line transform="translate(0,200)" x2="-5" y2="0" style="fill: none; stroke: #000; stroke-width: 1; opacity: 1;"></line><line transform="translate(0,190)" x2="-5" y2="0" style="fill: none; stroke: #000; stroke-width: 1; opacity: 1;"></line><line transform="translate(0,184)" x2="-5" y2="0" style="fill: none; stroke: #000; stroke-width: 1; opacity: 1;"></line><line transform="translate(0,180)" x2="-5" y2="0" style="fill: none; stroke: #000; stroke-width: 1; opacity: 1;"></line><line transform="translate(0,177)" x2="-5" y2="0" style="fill: none; stroke: #000; stroke-width: 1; opacity: 1;"></line><line transform="translate(0,174)" x2="-5" y2="0" style="fill: none; stroke: #000; stroke-width: 1; opacity: 1;"></line><line transform="translate(0,172)" x2="-5" y2="0" style="fill: none; stroke: #000; stroke-width: 1; opacity: 1;"></line><line transform="translate(0,170)" x2="-5" y2="0" style="fill: none; stroke: #000; stroke-width: 1; opacity: 1;"></line><line transform="translate(0,168)" x2="-5" y2="0" style="fill: none; stroke: #000; stroke-width: 1; opacity: 1;"></line><line transform="translate(0,167)" x2="-5" y2="0" style="fill: none; stroke: #000; stroke-width: 1; opacity: 1;"></line><line transform="translate(0,157)" x2="-5" y2="0" style="fill: none; stroke: #000; stroke-width: 1; opacity: 1;"></line><line transform="translate(0,151)" x2="-5" y2="0" style="fill: none; stroke: #000; stroke-width: 1; opacity: 1;"></line><line transform="translate(0,147)" x2="-5" y2="0" style="fill: none; stroke: #000; stroke-width: 1; opacity: 1;"></line><line transform="translate(0,143)" x2="-5" y2="0" style="fill: none; stroke: #000; stroke-width: 1; opacity: 1;"></line><line transform="translate(0,141)" x2="-5" y2="0" style="fill: none; stroke: #000; stroke-width: 1; opacity: 1;"></line><line transform="translate(0,138)" x2="-5" y2="0" style="fill: none; stroke: #000; stroke-width: 1; opacity: 1;"></line><line transform="translate(0,137)" x2="-5" y2="0" style="fill: none; stroke: #000; stroke-width: 1; opacity: 1;"></line><line transform="translate(0,135)" x2="-5" y2="0" style="fill: none; stroke: #000; stroke-width: 1; opacity: 1;"></line><line transform="translate(0,133)" x2="-5" y2="0" style="fill: none; stroke: #000; stroke-width: 1; opacity: 1;"></line><line transform="translate(0,123)" x2="-5" y2="0" style="fill: none; stroke: #000; stroke-width: 1; opacity: 1;"></line><line transform="translate(0,117)" x2="-5" y2="0" style="fill: none; stroke: #000; stroke-width: 1; opacity: 1;"></line><line transform="translate(0,113)" x2="-5" y2="0" style="fill: none; stroke: #000; stroke-width: 1; opacity: 1;"></line><line transform="translate(0,110)" x2="-5" y2="0" style="fill: none; stroke: #000; stroke-width: 1; opacity: 1;"></line><line transform="translate(0,107)" x2="-5" y2="0" style="fill: none; stroke: #000; stroke-width: 1; opacity: 1;"></line><line transform="translate(0,105)" x2="-5" y2="0" style="fill: none; stroke: #000; stroke-width: 1; opacity: 1;"></line><line transform="translate(0,103)" x2="-5" y2="0" style="fill: none; stroke: #000; stroke-width: 1; opacity: 1;"></line><line transform="translate(0,102)" x2="-5" y2="0" style="fill: none; stroke: #000; stroke-width: 1; opacity: 1;"></line><line transform="translate(0,100)" x2="-5" y2="0" style="fill: none; stroke: #000; stroke-width: 1; opacity: 1;"></line><line transform="translate(0,90)" x2="-5" y2="0" style="fill: none; stroke: #000; stroke-width: 1; opacity: 1;"></line><line transform="translate(0,84)" x2="-5" y2="0" style="fill: none; stroke: #000; stroke-width: 1; opacity: 1;"></line><line transform="translate(0,80)" x2="-5" y2="0" style="fill: none; stroke: #000; stroke-width: 1; opacity: 1;"></line><line transform="translate(0,77)" x2="-5" y2="0" style="fill: none; stroke: #000; stroke-width: 1; opacity: 1;"></line><line transform="translate(0,74)" x2="-5" y2="0" style="fill: none; stroke: #000; stroke-width: 1; opacity: 1;"></line><line transform="translate(0,72)" x2="-5" y2="0" style="fill: none; stroke: #000; stroke-width: 1; opacity: 1;"></line><line transform="translate(0,70)" x2="-5" y2="0" style="fill: none; stroke: #000; stroke-width: 1; opacity: 1;"></line><line transform="translate(0,68)" x2="-5" y2="0" style="fill: none; stroke: #000; stroke-width: 1; opacity: 1;"></line><line transform="translate(0,67)" x2="-5" y2="0" style="fill: none; stroke: #000; stroke-width: 1; opacity: 1;"></line><line transform="translate(0,57)" x2="-5" y2="0" style="fill: none; stroke: #000; stroke-width: 1; opacity: 1;"></line><line transform="translate(0,51)" x2="-5" y2="0" style="fill: none; stroke: #000; stroke-width: 1; opacity: 1;"></line><line transform="translate(0,47)" x2="-5" y2="0" style="fill: none; stroke: #000; stroke-width: 1; opacity: 1;"></line><line transform="translate(0,43)" x2="-5" y2="0" style="fill: none; stroke: #000; stroke-width: 1; opacity: 1;"></line><line transform="translate(0,41)" x2="-5" y2="0" style="fill: none; stroke: #000; stroke-width: 1; opacity: 1;"></line><line transform="translate(0,38)" x2="-5" y2="0" style="fill: none; stroke: #000; stroke-width: 1; opacity: 1;"></line><line transform="translate(0,37)" x2="-5" y2="0" style="fill: none; stroke: #000; stroke-width: 1; opacity: 1;"></line><line transform="translate(0,35)" x2="-5" y2="0" style="fill: none; stroke: #000; stroke-width: 1; opacity: 1;"></line><line transform="translate(0,33)" x2="-5" y2="0" style="fill: none; stroke: #000; stroke-width: 1; opacity: 1;"></line><line transform="translate(0,23)" x2="-5" y2="0" style="fill: none; stroke: #000; stroke-width: 1; opacity: 1;"></line><line transform="translate(0,17)" x2="-5" y2="0" style="fill: none; stroke: #000; stroke-width: 1; opacity: 1;"></line><line transform="translate(0,13)" x2="-5" y2="0" style="fill: none; stroke: #000; stroke-width: 1; opacity: 1;"></line><line transform="translate(0,10)" x2="-5" y2="0" style="fill: none; stroke: #000; stroke-width: 1; opacity: 1;"></line><line transform="translate(0,7)" x2="-5" y2="0" style="fill: none; stroke: #000; stroke-width: 1; opacity: 1;"></line><line transform="translate(0,5)" x2="-5" y2="0" style="fill: none; stroke: #000; stroke-width: 1; opacity: 1;"></line><line transform="translate(0,3)" x2="-5" y2="0" style="fill: none; stroke: #000; stroke-width: 1; opacity: 1;"></line><line transform="translate(0,2)" x2="-5" y2="0" style="fill: none; stroke: #000; stroke-width: 1; opacity: 1;"></line><line transform="translate(0,0)" x2="-5" y2="0" style="fill: none; stroke: #000; stroke-width: 1; opacity: 1;"></line></g><g class="mark-text role-axis-label" style="pointer-events: none;"><text text-anchor="end" transform="translate(-7,203)" style="font: 10px sans-serif; fill: #000; opacity: 1;">10m</text><text text-anchor="end" transform="translate(-7,193)" style="font: 10px sans-serif; fill: #000; opacity: 1;"></text><text text-anchor="end" transform="translate(-7,187)" style="font: 10px sans-serif; fill: #000; opacity: 1;"></text><text text-anchor="end" transform="translate(-7,183)" style="font: 10px sans-serif; fill: #000; opacity: 1;"></text><text text-anchor="end" transform="translate(-7,180)" style="font: 10px sans-serif; fill: #000; opacity: 1;"></text><text text-anchor="end" transform="translate(-7,177)" style="font: 10px sans-serif; fill: #000; opacity: 1;"></text><text text-anchor="end" transform="translate(-7,175)" style="font: 10px sans-serif; fill: #000; opacity: 1;"></text><text text-anchor="end" transform="translate(-7,173)" style="font: 10px sans-serif; fill: #000; opacity: 1;"></text><text text-anchor="end" transform="translate(-7,171)" style="font: 10px sans-serif; fill: #000; opacity: 1;"></text><text text-anchor="end" transform="translate(-7,170)" style="font: 10px sans-serif; fill: #000; opacity: 1;">100m</text><text text-anchor="end" transform="translate(-7,160)" style="font: 10px sans-serif; fill: #000; opacity: 1;"></text><text text-anchor="end" transform="translate(-7,154)" style="font: 10px sans-serif; fill: #000; opacity: 1;"></text><text text-anchor="end" transform="translate(-7,150)" style="font: 10px sans-serif; fill: #000; opacity: 1;"></text><text text-anchor="end" transform="translate(-7,146)" style="font: 10px sans-serif; fill: #000; opacity: 1;"></text><text text-anchor="end" transform="translate(-7,144)" style="font: 10px sans-serif; fill: #000; opacity: 1;"></text><text text-anchor="end" transform="translate(-7,141)" style="font: 10px sans-serif; fill: #000; opacity: 1;"></text><text text-anchor="end" transform="translate(-7,140)" style="font: 10px sans-serif; fill: #000; opacity: 1;"></text><text text-anchor="end" transform="translate(-7,138)" style="font: 10px sans-serif; fill: #000; opacity: 1;"></text><text text-anchor="end" transform="translate(-7,136)" style="font: 10px sans-serif; fill: #000; opacity: 1;">1</text><text text-anchor="end" transform="translate(-7,126)" style="font: 10px sans-serif; fill: #000; opacity: 1;"></text><text text-anchor="end" transform="translate(-7,120)" style="font: 10px sans-serif; fill: #000; opacity: 1;"></text><text text-anchor="end" transform="translate(-7,116)" style="font: 10px sans-serif; fill: #000; opacity: 1;"></text><text text-anchor="end" transform="translate(-7,113)" style="font: 10px sans-serif; fill: #000; opacity: 1;"></text><text text-anchor="end" transform="translate(-7,110)" style="font: 10px sans-serif; fill: #000; opacity: 1;"></text><text text-anchor="end" transform="translate(-7,108)" style="font: 10px sans-serif; fill: #000; opacity: 1;"></text><text text-anchor="end" transform="translate(-7,106)" style="font: 10px sans-serif; fill: #000; opacity: 1;"></text><text text-anchor="end" transform="translate(-7,105)" style="font: 10px sans-serif; fill: #000; opacity: 1;"></text><text text-anchor="end" transform="translate(-7,103)" style="font: 10px sans-serif; fill: #000; opacity: 1;">10</text><text text-anchor="end" transform="translate(-7,93)" style="font: 10px sans-serif; fill: #000; opacity: 1;"></text><text text-anchor="end" transform="translate(-7,87)" style="font: 10px sans-serif; fill: #000; opacity: 1;"></text><text text-anchor="end" transform="translate(-7,83)" style="font: 10px sans-serif; fill: #000; opacity: 1;"></text><text text-anchor="end" transform="translate(-7,80)" style="font: 10px sans-serif; fill: #000; opacity: 1;"></text><text text-anchor="end" transform="translate(-7,77)" style="font: 10px sans-serif; fill: #000; opacity: 1;"></text><text text-anchor="end" transform="translate(-7,75)" style="font: 10px sans-serif; fill: #000; opacity: 1;"></text><text text-anchor="end" transform="translate(-7,73)" style="font: 10px sans-serif; fill: #000; opacity: 1;"></text><text text-anchor="end" transform="translate(-7,71)" style="font: 10px sans-serif; fill: #000; opacity: 1;"></text><text text-anchor="end" transform="translate(-7,70)" style="font: 10px sans-serif; fill: #000; opacity: 1;">100</text><text text-anchor="end" transform="translate(-7,60)" style="font: 10px sans-serif; fill: #000; opacity: 1;"></text><text text-anchor="end" transform="translate(-7,54)" style="font: 10px sans-serif; fill: #000; opacity: 1;"></text><text text-anchor="end" transform="translate(-7,50)" style="font: 10px sans-serif; fill: #000; opacity: 1;"></text><text text-anchor="end" transform="translate(-7,46)" style="font: 10px sans-serif; fill: #000; opacity: 1;"></text><text text-anchor="end" transform="translate(-7,44)" style="font: 10px sans-serif; fill: #000; opacity: 1;"></text><text text-anchor="end" transform="translate(-7,41)" style="font: 10px sans-serif; fill: #000; opacity: 1;"></text><text text-anchor="end" transform="translate(-7,40)" style="font: 10px sans-serif; fill: #000; opacity: 1;"></text><text text-anchor="end" transform="translate(-7,38)" style="font: 10px sans-serif; fill: #000; opacity: 1;"></text><text text-anchor="end" transform="translate(-7,36)" style="font: 10px sans-serif; fill: #000; opacity: 1;">1k</text><text text-anchor="end" transform="translate(-7,26)" style="font: 10px sans-serif; fill: #000; opacity: 1;"></text><text text-anchor="end" transform="translate(-7,20)" style="font: 10px sans-serif; fill: #000; opacity: 1;"></text><text text-anchor="end" transform="translate(-7,16)" style="font: 10px sans-serif; fill: #000; opacity: 1;"></text><text text-anchor="end" transform="translate(-7,13)" style="font: 10px sans-serif; fill: #000; opacity: 1;"></text><text text-anchor="end" transform="translate(-7,10)" style="font: 10px sans-serif; fill: #000; opacity: 1;"></text><text text-anchor="end" transform="translate(-7,8)" style="font: 10px sans-serif; fill: #000; opacity: 1;"></text><text text-anchor="end" transform="translate(-7,6)" style="font: 10px sans-serif; fill: #000; opacity: 1;"></text><text text-anchor="end" transform="translate(-7,5)" style="font: 10px sans-serif; fill: #000; opacity: 1;"></text><text text-anchor="end" transform="translate(-7,3)" style="font: 10px sans-serif; fill: #000; opacity: 1;">10k</text></g><g class="mark-rule role-axis-domain" style="pointer-events: none;"><line transform="translate(0,200)" x2="0" y2="-200" style="fill: none; stroke: #000; stroke-width: 1; opacity: 1;"></line></g><g class="mark-text role-axis-title" style="pointer-events: none;"><text text-anchor="middle" transform="translate(-35.0146484375,100) rotate(-90) translate(0,-2)" style="font: bold 11px sans-serif; fill: #000; opacity: 1;">Elapsed Time</text></g></g></g></g></g></g></g></g></svg>